<svg xmlns="http://www.w3.org/2000/svg" xmlns:xlink="http://www.w3.org/1999/xlink" width="1080" zoomAndPan="magnify" viewBox="0 0 810 809.999993" height="1080" preserveAspectRatio="xMidYMid meet" version="1.0"><defs><clipPath id="a141521d80"><path d="M 0 576 L 810 576 L 810 674.792969 L 0 674.792969 Z M 0 576 " clip-rule="nonzero"/></clipPath><clipPath id="13bba623fd"><path d="M 0 601 L 810 601 L 810 674.792969 L 0 674.792969 Z M 0 601 " clip-rule="nonzero"/></clipPath><clipPath id="c294d0d78c"><path d="M 0 671.933594 L 810 671.933594 L 810 810 L 0 810 Z M 0 671.933594 " clip-rule="nonzero"/></clipPath></defs><g clip-path="url(#a141521d80)"><path fill="#b87835" d="M 819.734375 588.84375 C 776.449219 590.738281 742.601562 591.820312 700.808594 588.214844 C 691.332031 587.402344 681.628906 586.367188 671.203125 585.058594 C 538.0625 568.429688 443.964844 577.984375 366.246094 588.214844 C 361.460938 588.84375 356.769531 589.476562 352.164062 590.105469 C 333.75 592.585938 316.375 594.882812 300.535156 596.417969 C 261.3125 600.203125 205.171875 596.328125 150.875 592.632812 C 126.460938 590.964844 101.230469 589.25 77.808594 588.214844 C 48.5625 586.953125 26.449219 586.953125 8.125 588.214844 C 5.507812 588.394531 2.886719 588.621094 0.453125 588.84375 L 0 588.890625 L 0 674.605469 L 820.5 674.605469 L 820.5 588.800781 Z M 819.734375 588.84375 " fill-opacity="1" fill-rule="nonzero"/></g><g clip-path="url(#13bba623fd)"><path fill="#884f21" d="M 666.914062 624.402344 C 605.492188 618.320312 579.179688 598.535156 522.132812 601.597656 C 465.128906 604.617188 140.40625 627.421875 0 618.320312 L 0 674.652344 L 820.5 674.652344 L 820.5 618.320312 C 754.699219 618.320312 728.386719 630.488281 666.914062 624.402344 Z M 666.914062 624.402344 " fill-opacity="1" fill-rule="nonzero"/></g><g clip-path="url(#c294d0d78c)"><path fill="#885021" d="M 0 671.933594 L 943.523438 671.933594 L 943.523438 914.933594 L 0 914.933594 Z M 0 671.933594 " fill-opacity="1" fill-rule="nonzero"/></g></svg>