<svg width="160" height="148" viewBox="0 0 160 148" fill="none" xmlns="http://www.w3.org/2000/svg">
<path fill-rule="evenodd" clip-rule="evenodd" d="M120 0C142.092 0 160 28.2293 160 63.0518C160 97.8749 142.092 126.104 120 126.104L44 120C40 120 39.5 121 38.5 121V148L9 106C1 90 0 88.2688 0 63.0518C0 28.2293 17.9086 0 40 0H120Z" fill="#C0DDA6"/>
<path fill-rule="evenodd" clip-rule="evenodd" d="M116.75 6C137.323 6 154 31.8768 154 63.7975C154 95.7187 137.323 121.595 116.75 121.595L46.3889 117.868C42.25 117.868 40.1806 117.868 36.0417 120.151V140L13.2777 104.17C5 86 5 86.9131 5 63.7975C5 31.8768 21.6774 6 42.25 6H116.75Z" fill="white"/>
</svg>
