<svg width="48" height="48" viewBox="0 0 48 48" fill="none" xmlns="http://www.w3.org/2000/svg">
<g id="icon-park-outline:consume">
<g id="Group">
<path id="Vector" d="M4 14C4 13.4696 4.21071 12.9609 4.58579 12.5858C4.96086 12.2107 5.46957 12 6 12H42C42.5304 12 43.0391 12.2107 43.4142 12.5858C43.7893 12.9609 44 13.4696 44 14V40C44 40.5304 43.7893 41.0391 43.4142 41.4142C43.0391 41.7893 42.5304 42 42 42H6C5.46957 42 4.96086 41.7893 4.58579 41.4142C4.21071 41.0391 4 40.5304 4 40V14Z" stroke="#AFAFAF" stroke-width="4" stroke-linejoin="round"/>
<path id="Vector_2" d="M19 19L24 24L29 19M18 25H30M18 31H30M24 25V35M8 6H40" stroke="#AFAFAF" stroke-width="4" stroke-linecap="round" stroke-linejoin="round"/>
</g>
</g>
</svg>
