<svg width="27" height="25" viewBox="0 0 27 25" fill="none" xmlns="http://www.w3.org/2000/svg">
<path id="Vector" d="M24.8684 20.5822C25.4158 20.5825 25.9422 20.7953 26.3383 21.1767C26.7345 21.558 26.9702 22.0785 26.9965 22.6305C27.0228 23.1824 26.8377 23.7234 26.4796 24.1414C26.1216 24.5593 25.6179 24.8222 25.0731 24.8755L24.8684 24.8855H2.13158C1.58417 24.8853 1.05784 24.6724 0.661661 24.2911C0.265483 23.9098 0.029825 23.3892 0.00351816 22.8373C-0.0227887 22.2853 0.162273 21.7444 0.520355 21.3264C0.878437 20.9084 1.38209 20.6456 1.92695 20.5923L2.13158 20.5822H24.8684ZM24.8684 10.5411C25.4338 10.5411 25.9759 10.7678 26.3757 11.1713C26.7754 11.5748 27 12.1221 27 12.6928C27 13.2634 26.7754 13.8107 26.3757 14.2142C25.9759 14.6177 25.4338 14.8444 24.8684 14.8444H2.13158C1.56625 14.8444 1.02407 14.6177 0.624325 14.2142C0.224576 13.8107 0 13.2634 0 12.6928C0 12.1221 0.224576 11.5748 0.624325 11.1713C1.02407 10.7678 1.56625 10.5411 2.13158 10.5411H24.8684ZM24.8684 0.5C25.4338 0.5 25.9759 0.726693 26.3757 1.13021C26.7754 1.53372 27 2.08101 27 2.65167C27 3.22232 26.7754 3.76961 26.3757 4.17312C25.9759 4.57664 25.4338 4.80333 24.8684 4.80333H2.13158C1.56625 4.80333 1.02407 4.57664 0.624325 4.17312C0.224576 3.76961 0 3.22232 0 2.65167C0 2.08101 0.224576 1.53372 0.624325 1.13021C1.02407 0.726693 1.56625 0.5 2.13158 0.5H24.8684Z" fill="#AFAFAF"/>
</svg>
