<svg xmlns="http://www.w3.org/2000/svg" xmlns:xlink="http://www.w3.org/1999/xlink" width="1080" zoomAndPan="magnify" viewBox="0 0 810 809.999993" height="1080" preserveAspectRatio="xMidYMid meet" version="1.0"><defs><clipPath id="9fa5fac055"><path d="M 213.351562 213.449219 L 596.601562 213.449219 L 596.601562 596.699219 L 213.351562 596.699219 Z M 213.351562 213.449219 " clip-rule="nonzero"/></clipPath></defs><g clip-path="url(#9fa5fac055)"><path fill="#d28d4a" d="M 596.523438 275.882812 C 596.027344 288.171875 595.058594 300.714844 593.5625 314.234375 C 592.257812 326.035156 590.394531 338.476562 587.871094 352.273438 L 587.835938 352.453125 C 586.703125 358.539062 585.53125 364.832031 582.226562 370.15625 C 578.792969 375.675781 573.308594 379.957031 567.125 381.953125 C 566.414062 388.4375 565.5625 394.992188 564.730469 401.335938 C 564.253906 404.996094 563.777344 408.65625 563.320312 412.320312 C 562.828125 416.316406 562.375 420.320312 561.921875 424.320312 C 561.222656 430.5 560.5 436.890625 559.628906 443.160156 C 558.78125 449.253906 557.75 455.417969 556.75 461.378906 C 556.058594 465.527344 555.363281 469.675781 554.722656 473.832031 C 554.230469 477.050781 553.746094 480.273438 553.265625 483.492188 C 552.230469 490.390625 551.160156 497.527344 549.980469 504.523438 C 549.328125 508.367188 548.710938 512.214844 548.09375 516.066406 C 547.089844 522.332031 546.050781 528.816406 544.878906 535.167969 C 543.46875 542.804688 541.714844 552.304688 536.242188 559.210938 C 532.878906 563.402344 528.28125 567.085938 522.582031 570.15625 C 512.875 575.378906 502.554688 579.871094 491.914062 583.515625 C 482.628906 586.691406 472.328125 589.273438 459.5 591.632812 C 450.273438 593.328125 440.960938 593.929688 431.957031 594.507812 C 430.074219 594.628906 428.195312 594.75 426.320312 594.878906 C 419.878906 595.3125 400.667969 596.214844 389.609375 596.214844 C 387.183594 596.214844 385.152344 596.171875 383.734375 596.074219 C 372.851562 595.316406 361.679688 593.257812 350.875 591.273438 L 350.703125 591.242188 C 340.105469 589.292969 329.140625 587.277344 318.207031 583.535156 C 307.441406 579.847656 296.816406 574.417969 287.847656 569.59375 C 283.003906 566.96875 277.511719 563.996094 273.761719 559.304688 C 268.46875 552.617188 266.507812 543.742188 264.949219 535.222656 C 263.933594 529.71875 263.210938 524.074219 262.511719 518.613281 C 261.917969 513.964844 261.300781 509.15625 260.507812 504.46875 C 259.3125 497.414062 258.234375 490.222656 257.1875 483.269531 C 256.714844 480.105469 256.238281 476.941406 255.75 473.78125 C 255.085938 469.46875 254.339844 465.097656 253.613281 460.867188 C 252.621094 455.0625 251.59375 449.058594 250.769531 443.125 C 250.140625 438.582031 249.378906 433.976562 248.644531 429.519531 C 247.722656 423.925781 246.769531 418.140625 246.058594 412.410156 C 245.34375 406.621094 244.832031 400.695312 244.335938 394.964844 C 243.96875 390.667969 243.582031 386.226562 243.117188 381.875 C 237.027344 379.894531 231.578125 375.59375 228.109375 370.015625 C 224.882812 364.8125 222.640625 358.894531 221.445312 352.425781 C 218.910156 338.597656 217.042969 326.140625 215.730469 314.328125 C 214.59375 304.046875 214.21875 293.539062 213.859375 283.371094 C 213.769531 280.875 213.679688 278.378906 213.582031 275.882812 C 213.386719 271.066406 215.316406 266.765625 218.867188 264.089844 C 227.28125 257.734375 237.335938 252.472656 247.941406 248.875 C 257.84375 245.511719 268.84375 242.675781 279.757812 240.667969 C 288.277344 239.101562 296.410156 238.046875 303.578125 237.117188 C 306.644531 236.71875 309.523438 236.347656 312.164062 235.96875 C 319.890625 234.859375 328.007812 234.308594 336.601562 233.726562 C 338.746094 233.582031 340.90625 233.4375 343.082031 233.277344 C 345.640625 233.09375 348.21875 232.890625 350.816406 232.6875 C 358.386719 232.09375 366.214844 231.480469 374.03125 231.265625 C 382.152344 231.046875 390.378906 231.117188 398.335938 231.183594 C 400.582031 231.203125 402.820312 231.222656 405.046875 231.234375 C 408.898438 231.257812 412.71875 231.234375 416.484375 231.210938 C 423.3125 231.167969 429.75 231.132812 436.0625 231.347656 C 443.628906 231.609375 450.703125 232.167969 457.542969 232.707031 C 460.820312 232.964844 463.976562 233.214844 467.003906 233.414062 C 477.296875 234.09375 487.382812 235.152344 497.84375 236.652344 L 499.804688 236.933594 C 508.300781 238.152344 518.875 239.664062 530.167969 241.738281 C 531.625 242.007812 533.09375 242.273438 534.578125 242.539062 C 543.726562 244.183594 553.1875 245.882812 562.160156 248.929688 C 572.253906 252.355469 581.96875 257.558594 591.03125 264.390625 C 594.761719 267.210938 596.707031 271.289062 596.523438 275.882812 Z M 419.660156 196.3125 C 422.101562 194.953125 424.109375 192.953125 426.0625 190.96875 C 429.140625 187.839844 432.242188 184.65625 434.382812 180.808594 C 436.503906 176.976562 437.574219 172.347656 436.296875 168.144531 C 435.03125 163.933594 431.027344 160.433594 426.640625 160.652344 C 420.917969 160.917969 417.253906 166.664062 414.636719 171.769531 C 412.566406 175.847656 410.519531 179.984375 409.644531 184.472656 C 408.769531 188.953125 408.027344 195.015625 411.773438 197.640625 C 413.84375 199.101562 417.210938 197.652344 419.660156 196.3125 Z M 422.050781 131.3125 C 417.53125 130.671875 415.429688 124.9375 414.175781 120.542969 C 412.917969 116.15625 412.867188 111.523438 412.867188 106.964844 C 412.867188 101.230469 413.535156 94.433594 418.507812 91.59375 C 422.316406 89.421875 427.484375 90.730469 430.511719 93.902344 C 433.558594 97.0625 434.710938 101.671875 434.546875 106.058594 C 434.402344 110.453125 433.085938 114.695312 431.746094 118.875 C 430.902344 121.542969 430.039062 124.238281 428.472656 126.554688 C 426.90625 128.863281 424.5625 131.683594 422.050781 131.3125 Z M 354.269531 92.492188 C 358.003906 95.117188 357.273438 101.179688 356.398438 105.65625 C 355.523438 110.144531 353.464844 114.292969 351.40625 118.359375 C 348.792969 123.46875 345.128906 129.210938 339.394531 129.480469 C 335.015625 129.707031 331.011719 126.207031 329.734375 121.996094 C 328.46875 117.785156 329.542969 113.152344 331.660156 109.320312 C 333.792969 105.480469 336.890625 102.289062 339.980469 99.171875 C 341.9375 97.171875 343.945312 95.175781 346.382812 93.816406 C 348.832031 92.480469 352.191406 91.027344 354.269531 92.492188 Z M 379.449219 155.339844 C 383.1875 157.953125 382.457031 164.027344 381.582031 168.496094 C 380.707031 172.984375 378.65625 177.144531 376.589844 181.199219 C 373.972656 186.304688 370.308594 192.050781 364.574219 192.339844 C 360.1875 192.542969 356.183594 189.042969 354.917969 184.832031 C 353.652344 180.632812 354.710938 176.011719 356.84375 172.160156 C 358.960938 168.320312 362.070312 165.140625 365.160156 162.011719 C 367.117188 160.011719 369.125 158.015625 371.5625 156.667969 C 374.015625 155.316406 377.371094 153.878906 379.449219 155.339844 Z M 294.703125 131.96875 C 299.253906 131.664062 302.507812 136.828125 304.648438 140.863281 C 306.789062 144.902344 307.820312 149.410156 308.765625 153.878906 C 309.960938 159.480469 310.722656 166.261719 306.441406 170.082031 C 303.167969 173.007812 297.855469 172.800781 294.230469 170.339844 C 290.585938 167.878906 288.507812 163.597656 287.746094 159.273438 C 286.984375 154.960938 287.375 150.523438 287.804688 146.160156 C 288.074219 143.378906 288.371094 140.558594 289.410156 137.972656 C 290.460938 135.386719 292.171875 132.132812 294.703125 131.96875 Z M 537.644531 86.113281 C 538.066406 90.660156 532.96875 94.027344 528.984375 96.273438 C 525.011719 98.507812 520.523438 99.640625 516.074219 100.6875 C 510.496094 102.015625 503.742188 102.945312 499.820312 98.765625 C 496.824219 95.5625 496.894531 90.238281 499.273438 86.542969 C 501.640625 82.859375 505.863281 80.675781 510.167969 79.800781 C 514.46875 78.9375 518.917969 79.234375 523.292969 79.566406 C 526.082031 79.773438 528.902344 79.988281 531.515625 80.976562 C 534.121094 81.953125 537.40625 83.589844 537.644531 86.113281 Z M 516.699219 138.597656 C 519.128906 142.449219 516.132812 147.761719 513.601562 151.570312 C 511.070312 155.371094 507.578125 158.417969 504.101562 161.371094 C 499.734375 165.078125 494.136719 168.96875 488.75 167.035156 C 484.621094 165.53125 482.273438 160.765625 482.707031 156.398438 C 483.160156 152.023438 485.917969 148.164062 489.355469 145.433594 C 492.796875 142.71875 496.894531 140.957031 500.9375 139.257812 C 503.511719 138.1875 506.136719 137.097656 508.90625 136.789062 C 511.675781 136.480469 515.339844 136.449219 516.699219 138.597656 Z M 516.699219 138.597656 " fill-opacity="1" fill-rule="nonzero"/></g><path fill="#bf773c" d="M 583.023438 272.625 C 583.023438 275.722656 581.136719 279.03125 577.710938 281.941406 C 572.230469 286.601562 564.15625 288.597656 561.8125 289.101562 C 556.484375 290.234375 550.601562 291.28125 545.546875 292.160156 C 542.378906 292.710938 539.089844 293.144531 535.609375 293.605469 C 533.511719 293.878906 531.363281 294.164062 529.171875 294.484375 C 526.898438 294.816406 524.625 295.253906 522.21875 295.722656 C 519.203125 296.308594 516.082031 296.917969 512.855469 297.3125 C 510.628906 297.585938 508.410156 297.921875 506.0625 298.277344 C 502.953125 298.75 499.734375 299.238281 496.453125 299.578125 C 493.382812 299.894531 490.316406 300.089844 487.074219 300.296875 C 484.722656 300.449219 482.339844 300.601562 479.941406 300.800781 C 477.863281 300.976562 475.765625 301.179688 473.648438 301.386719 C 470.332031 301.707031 466.902344 302.042969 463.453125 302.269531 C 460.523438 302.464844 457.5 302.488281 454.574219 302.511719 C 452.066406 302.53125 449.472656 302.550781 446.902344 302.675781 C 444.414062 302.796875 441.847656 303.070312 439.367188 303.332031 C 436.445312 303.644531 433.421875 303.964844 430.394531 304.058594 C 426.953125 304.167969 423.410156 304.1875 419.984375 304.203125 C 417.945312 304.214844 415.894531 304.222656 413.835938 304.253906 C 409.855469 304.308594 405.761719 304.277344 401.808594 304.253906 L 397.285156 304.226562 C 395.046875 304.21875 392.800781 304.246094 390.546875 304.277344 C 388.59375 304.300781 386.597656 304.328125 384.59375 304.332031 C 383.304688 304.332031 382.011719 304.320312 380.722656 304.289062 C 377.75 304.222656 374.730469 303.945312 371.808594 303.675781 C 369.3125 303.445312 366.738281 303.207031 364.199219 303.101562 C 361.085938 302.972656 357.925781 302.6875 354.871094 302.410156 C 352.523438 302.199219 350.09375 301.976562 347.699219 301.828125 C 345.417969 301.6875 343.132812 301.597656 340.84375 301.507812 C 337.675781 301.386719 334.402344 301.257812 331.171875 300.988281 C 327.359375 300.671875 323.492188 300.242188 319.75 299.824219 C 318.070312 299.636719 316.390625 299.449219 314.710938 299.269531 C 310.078125 298.78125 305.382812 298.167969 300.84375 297.574219 L 298.289062 297.242188 C 295.859375 296.925781 293.363281 296.722656 290.949219 296.523438 C 287.945312 296.28125 284.839844 296.027344 281.808594 295.554688 C 279.496094 295.195312 277.125 294.90625 274.832031 294.625 C 271.726562 294.246094 268.515625 293.855469 265.390625 293.277344 C 262.386719 292.726562 259.410156 291.882812 256.53125 291.066406 C 254.167969 290.394531 251.726562 289.703125 249.308594 289.183594 C 244.449219 288.144531 238.28125 284.980469 233.964844 281.3125 C 230.136719 278.054688 228.195312 274.878906 228.195312 271.867188 C 228.195312 269.617188 229.296875 267.539062 231.472656 265.6875 C 235.363281 262.378906 240.726562 260.332031 247.328125 257.996094 C 253.1875 255.921875 258.816406 254.296875 264.058594 253.164062 C 268.046875 252.300781 272.023438 251.601562 275.539062 250.988281 C 277.5 250.644531 279.367188 250.316406 281.101562 249.984375 C 286.839844 248.890625 292.222656 248.003906 297.5625 247.277344 C 300.449219 246.882812 303.402344 246.730469 306.527344 246.570312 C 309.019531 246.445312 311.59375 246.3125 314.183594 246.046875 C 316.191406 245.839844 318.230469 245.597656 320.296875 245.347656 C 323.671875 244.945312 327.164062 244.523438 330.730469 244.25 C 333.101562 244.066406 335.449219 243.789062 337.929688 243.5 C 340.976562 243.140625 344.125 242.773438 347.304688 242.589844 C 350.242188 242.417969 353.277344 242.429688 356.207031 242.445312 C 358.746094 242.460938 361.367188 242.46875 363.960938 242.367188 C 366.515625 242.265625 369.140625 241.988281 371.679688 241.722656 C 374.582031 241.417969 377.582031 241.097656 380.582031 241.027344 C 382.332031 240.984375 384.09375 240.9375 385.855469 240.886719 C 389.578125 240.78125 393.429688 240.671875 397.234375 240.640625 C 400.367188 240.609375 403.542969 240.703125 406.617188 240.792969 C 409.042969 240.859375 411.46875 240.933594 413.890625 240.945312 C 416.832031 240.964844 419.804688 241.253906 422.675781 241.535156 C 425.253906 241.789062 427.921875 242.046875 430.523438 242.105469 C 433.011719 242.15625 435.535156 242.132812 437.984375 242.113281 C 441.003906 242.085938 444.128906 242.058594 447.179688 242.175781 C 449.5625 242.269531 451.933594 242.308594 454.296875 242.351562 C 457.433594 242.40625 460.679688 242.460938 463.832031 242.640625 C 467.039062 242.824219 470.234375 243.183594 473.320312 243.535156 C 475.660156 243.796875 478.074219 244.070312 480.414062 244.253906 C 483.042969 244.460938 485.695312 244.484375 488.265625 244.507812 C 491.183594 244.53125 494.199219 244.558594 497.085938 244.863281 C 500.816406 245.253906 504.457031 245.820312 507.972656 246.371094 C 509.875 246.667969 511.75 246.957031 513.59375 247.21875 C 518.277344 247.871094 524.382812 248.761719 530.0625 249.847656 C 533.964844 250.589844 538.476562 251.574219 543.253906 252.617188 L 547.019531 253.433594 C 553.5 254.835938 558.984375 256.34375 563.796875 258.042969 C 569.1875 259.953125 575.292969 262.285156 579.511719 265.871094 C 581.84375 267.855469 583.023438 270.128906 583.023438 272.625 Z M 583.023438 272.625 " fill-opacity="1" fill-rule="nonzero"/><path fill="#805a35" d="M 242.460938 386.78125 C 239.945312 386.128906 241.019531 382.238281 243.535156 382.890625 C 249.347656 384.402344 255.273438 385.859375 261.191406 386.910156 C 264.148438 387.4375 267.132812 387.835938 270.0625 388.519531 C 272.890625 389.175781 275.597656 390.226562 278.34375 391.148438 C 283.832031 392.992188 289.53125 393.410156 295.207031 394.367188 C 301.140625 395.367188 307.109375 396.332031 313.011719 397.5 C 318.152344 398.519531 323.167969 399.589844 328.417969 399.882812 C 333.792969 400.179688 339.132812 400.753906 344.503906 401.175781 C 349.859375 401.59375 355.195312 402.230469 360.546875 402.691406 C 365.695312 403.136719 370.847656 403.03125 376.007812 403.214844 C 381.371094 403.40625 386.75 403.53125 392.109375 403.800781 C 397.289062 404.0625 402.382812 404.511719 407.578125 404.449219 C 418.335938 404.324219 429.078125 403.796875 439.75 402.429688 C 442.320312 402.097656 444.882812 401.828125 447.472656 401.824219 C 450.066406 401.820312 452.660156 401.992188 455.253906 401.921875 C 460.585938 401.78125 466.035156 400.957031 471.316406 400.226562 C 476.261719 399.539062 481.007812 397.894531 485.964844 397.214844 C 491.230469 396.492188 496.53125 395.480469 501.835938 395.105469 C 504.671875 394.902344 507.542969 394.898438 510.363281 394.46875 C 512.808594 394.097656 515.175781 393.355469 517.53125 392.613281 C 522.421875 391.070312 527.222656 390.285156 532.292969 389.625 C 537.691406 388.921875 542.902344 387.496094 548.183594 386.234375 C 553.421875 384.980469 558.722656 384 563.972656 382.785156 C 566.503906 382.199219 567.574219 386.089844 565.046875 386.675781 C 559.164062 388.035156 553.226562 389.140625 547.367188 390.585938 C 541.5 392.035156 535.726562 393.203125 529.730469 393.984375 C 526.757812 394.371094 523.855469 394.902344 520.980469 395.761719 C 518.222656 396.589844 515.503906 397.578125 512.675781 398.140625 C 509.742188 398.726562 506.753906 398.859375 503.773438 399.023438 C 500.710938 399.191406 497.726562 399.628906 494.691406 400.0625 C 489.660156 400.78125 484.613281 401.28125 479.671875 402.511719 C 474.550781 403.785156 469.476562 404.5 464.238281 405.105469 C 461.472656 405.421875 458.6875 405.816406 455.90625 405.933594 C 453.308594 406.046875 450.714844 405.882812 448.117188 405.863281 C 442.714844 405.820312 437.4375 406.945312 432.074219 407.375 C 421.640625 408.210938 410.953125 408.988281 400.484375 408.4375 C 395.109375 408.15625 389.757812 407.800781 384.375 407.601562 C 379.003906 407.398438 373.644531 407.214844 368.273438 407.121094 C 362.886719 407.03125 357.558594 406.4375 352.207031 405.890625 C 346.859375 405.34375 341.488281 405.027344 336.144531 404.445312 C 331.035156 403.894531 325.890625 403.960938 320.808594 403.136719 C 315.5 402.277344 310.253906 401.066406 304.949219 400.171875 C 299.644531 399.273438 294.367188 398.242188 289.035156 397.511719 C 286.285156 397.136719 283.503906 396.78125 280.804688 396.101562 C 278.40625 395.5 276.09375 394.617188 273.757812 393.820312 C 268.679688 392.089844 263.441406 391.488281 258.207031 390.445312 C 252.9375 389.394531 247.660156 388.132812 242.460938 386.78125 Z M 242.460938 386.78125 " fill-opacity="1" fill-rule="nonzero"/><path fill="#805a35" d="M 564.648438 287.425781 C 564.742188 287.75 564.777344 288.054688 564.785156 288.347656 C 563.492188 288.71875 562.441406 288.964844 561.8125 289.101562 C 556.488281 290.234375 550.601562 291.28125 545.550781 292.160156 C 542.378906 292.710938 539.089844 293.144531 535.609375 293.605469 C 533.511719 293.878906 531.363281 294.164062 529.171875 294.484375 C 526.898438 294.816406 524.628906 295.253906 522.222656 295.722656 C 519.203125 296.308594 516.082031 296.917969 512.855469 297.3125 C 510.628906 297.585938 508.410156 297.921875 506.0625 298.277344 C 502.953125 298.75 499.734375 299.238281 496.453125 299.578125 C 493.382812 299.894531 490.320312 300.089844 487.078125 300.296875 C 484.722656 300.449219 482.34375 300.601562 479.941406 300.800781 C 477.863281 300.976562 475.765625 301.179688 473.648438 301.386719 C 470.332031 301.707031 466.90625 302.042969 463.453125 302.269531 C 460.523438 302.464844 457.5 302.488281 454.574219 302.511719 C 452.066406 302.53125 449.472656 302.550781 446.90625 302.675781 C 444.414062 302.796875 441.851562 303.070312 439.371094 303.332031 C 436.445312 303.644531 433.421875 303.964844 430.394531 304.058594 C 426.953125 304.167969 423.414062 304.1875 419.988281 304.203125 C 417.945312 304.214844 415.894531 304.222656 413.839844 304.253906 C 409.855469 304.308594 405.765625 304.277344 401.808594 304.253906 L 397.285156 304.226562 C 395.046875 304.21875 392.804688 304.246094 390.546875 304.277344 C 388.59375 304.304688 386.597656 304.328125 384.59375 304.332031 C 383.308594 304.332031 382.015625 304.320312 380.726562 304.289062 C 377.753906 304.222656 374.730469 303.945312 371.808594 303.675781 C 369.316406 303.445312 366.738281 303.207031 364.199219 303.101562 C 361.085938 302.972656 357.925781 302.6875 354.871094 302.410156 C 352.523438 302.199219 350.09375 301.976562 347.699219 301.828125 C 345.421875 301.6875 343.132812 301.597656 340.84375 301.507812 C 337.675781 301.386719 334.402344 301.257812 331.171875 300.988281 C 327.359375 300.671875 323.492188 300.242188 319.75 299.824219 C 318.074219 299.636719 316.394531 299.449219 314.710938 299.269531 C 310.078125 298.78125 305.386719 298.167969 300.84375 297.574219 L 298.289062 297.242188 C 295.859375 296.925781 293.363281 296.722656 290.949219 296.523438 C 287.945312 296.28125 284.84375 296.027344 281.808594 295.554688 C 279.496094 295.195312 277.125 294.90625 274.835938 294.625 C 271.726562 294.246094 268.519531 293.855469 265.390625 293.277344 C 262.921875 292.824219 260.472656 292.171875 258.078125 291.5 C 257.636719 290.566406 257.640625 289.425781 258.140625 288.332031 C 265.683594 271.84375 285.921875 263.855469 302.855469 269.027344 C 304.683594 264.402344 307.632812 260.238281 311.378906 256.957031 C 320.148438 249.269531 331.800781 246.308594 343.21875 248.332031 C 353.398438 250.132812 362.734375 255.800781 369.917969 263.210938 C 372.207031 259.785156 375.261719 256.878906 378.726562 254.640625 C 387.421875 249.015625 398.554688 247.796875 408.300781 251.214844 C 417.496094 254.4375 425.214844 260.972656 430.496094 269.089844 C 443.152344 263.355469 458.589844 265.238281 469.542969 273.796875 C 483.175781 265.75 500.933594 265.519531 514.796875 273.132812 C 522.300781 266.375 533.148438 263.546875 542.976562 266.097656 C 553.320312 268.777344 561.714844 277.210938 564.648438 287.425781 Z M 564.648438 287.425781 " fill-opacity="1" fill-rule="nonzero"/></svg>