<svg width="26" height="42" viewBox="0 0 26 42" fill="none" xmlns="http://www.w3.org/2000/svg">
<path d="M0.159801 27.4395C-0.149014 28.1613 -0.00273323 28.998 0.53363 29.5723L11.586 41.3848C11.9517 41.7785 12.4636 42 13 42C13.5364 42 14.0483 41.7785 14.414 41.3848L25.4664 29.5723C26.0027 28.998 26.149 28.1613 25.8402 27.4395C25.5314 26.7176 24.8325 26.25 24.0523 26.25H18.2011V2.625C18.2011 1.17305 17.039 0 15.6005 0H10.3995C8.96103 0 7.79891 1.17305 7.79891 2.625V26.25H1.94768C1.16751 26.25 0.468616 26.7176 0.159801 27.4395Z" fill="white"/>
</svg>
