<svg width="26" height="42" viewBox="0 0 26 42" fill="none" xmlns="http://www.w3.org/2000/svg">
<path d="M25.8376 14.5605C26.1463 13.8387 26.0001 13.002 25.4638 12.4277L14.4138 0.615234C14.0482 0.221484 13.5363 0 13.0001 0C12.4638 0 11.952 0.221484 11.5863 0.615234L0.536325 12.4277C7.50422e-05 13.002 -0.146175 13.8387 0.162575 14.5605C0.471325 15.2824 1.17008 15.75 1.95008 15.75H7.80008V39.375C7.80008 40.827 8.96195 42 10.4001 42H15.6001C17.0382 42 18.2001 40.827 18.2001 39.375V15.75H24.0501C24.8301 15.75 25.5288 15.2824 25.8376 14.5605Z" fill="white"/>
</svg>
