<svg width="128" height="128" viewBox="0 0 128 128" fill="none" xmlns="http://www.w3.org/2000/svg">
<g id="ph:x-bold">
<path id="Vector" d="M93.6234 106.376L93.6237 106.376C95.3135 108.066 97.6053 109.015 99.995 109.015C102.385 109.015 104.677 108.066 106.366 106.376C108.056 104.687 109.005 102.395 109.005 100.005C109.005 97.6153 108.056 95.3234 106.366 93.6337L76.7422 64.0002L106.376 34.3613C106.376 34.3613 106.376 34.3612 106.377 34.3611C108.066 32.6714 109.015 30.3796 109.015 27.99C109.015 25.6003 108.066 23.3085 106.376 21.6187C104.687 19.9289 102.395 18.9796 100.005 18.9796C97.6153 18.9796 95.3235 19.9289 93.6337 21.6187L93.6335 21.6188L64.0002 51.2568L34.3767 21.624L34.3763 21.6237C32.6866 19.9339 30.3947 18.9846 28.005 18.9846C25.6153 18.9846 23.3235 19.9339 21.6337 21.6237C19.9439 23.3135 18.9946 25.6053 18.9946 27.995C18.9946 30.3845 19.9438 32.6762 21.6334 34.366C21.6335 34.3661 21.6336 34.3662 21.6337 34.3663L51.2574 63.9993L21.624 93.6233L21.6237 93.6237C19.9339 95.3135 18.9846 97.6053 18.9846 99.995C18.9846 102.385 19.9339 104.677 21.6237 106.366C23.3135 108.056 25.6053 109.005 27.995 109.005C30.3847 109.005 32.6766 108.056 34.3663 106.366L63.9994 76.7426L93.6234 106.376Z" fill="#24272D" stroke="#24272D" stroke-width="6"/>
</g>
</svg>
