<svg width="44" height="40" viewBox="0 0 44 40" fill="none" xmlns="http://www.w3.org/2000/svg">
<path d="M2 10C2 9.46957 2.21071 8.96086 2.58579 8.58579C2.96086 8.21071 3.46957 8 4 8H40C40.5304 8 41.0391 8.21071 41.4142 8.58579C41.7893 8.96086 42 9.46957 42 10V36C42 36.5304 41.7893 37.0391 41.4142 37.4142C41.0391 37.7893 40.5304 38 40 38H4C3.46957 38 2.96086 37.7893 2.58579 37.4142C2.21071 37.0391 2 36.5304 2 36V10Z" stroke="#AFAFAF" stroke-width="4" stroke-linejoin="round"/>
<path d="M17 15L22 20L27 15M16 21H28M16 27H28M22 21V31M6 2H38" stroke="#AFAFAF" stroke-width="4" stroke-linecap="round" stroke-linejoin="round"/>
</svg>
