<svg width="87" height="87" viewBox="0 0 87 87" fill="none" xmlns="http://www.w3.org/2000/svg">
<g id="downButton" clip-path="url(#clip0_504_250)">
<g id="Group">
<g id="Vector" filter="url(#filter0_d_504_250)">
<path fill-rule="evenodd" clip-rule="evenodd" d="M49.5114 53.3781C48.1932 54.4167 46.4064 55 44.5435 55C42.6805 55 40.8937 54.4167 39.5755 53.3781L13.0581 32.467C11.7399 31.4267 10.9996 30.0158 11 28.5449C11.0004 27.0739 11.7416 25.6634 13.0604 24.6235C14.3792 23.5837 16.1677 22.9997 18.0323 23C19.897 23.0003 21.6851 23.585 23.0033 24.6254L44.5435 41.6175L66.0836 24.6254C67.4089 23.6147 69.1844 23.055 71.0277 23.067C72.8709 23.0789 74.6345 23.6615 75.9386 24.6892C77.2426 25.717 77.9828 27.1076 77.9997 28.5617C78.0166 30.0158 77.3088 31.4169 76.0288 32.4633L49.5161 53.3818L49.5114 53.3781Z" fill="#D9D9D9"/>
</g>
</g>
</g>
<defs>
<filter id="filter0_d_504_250" x="7" y="23" width="75" height="40" filterUnits="userSpaceOnUse" color-interpolation-filters="sRGB">
<feFlood flood-opacity="0" result="BackgroundImageFix"/>
<feColorMatrix in="SourceAlpha" type="matrix" values="0 0 0 0 0 0 0 0 0 0 0 0 0 0 0 0 0 0 127 0" result="hardAlpha"/>
<feOffset dy="4"/>
<feGaussianBlur stdDeviation="2"/>
<feComposite in2="hardAlpha" operator="out"/>
<feColorMatrix type="matrix" values="0 0 0 0 0 0 0 0 0 0 0 0 0 0 0 0 0 0 0.25 0"/>
<feBlend mode="normal" in2="BackgroundImageFix" result="effect1_dropShadow_504_250"/>
<feBlend mode="normal" in="SourceGraphic" in2="effect1_dropShadow_504_250" result="shape"/>
</filter>
<clipPath id="clip0_504_250">
<rect width="87" height="87" fill="white"/>
</clipPath>
</defs>
</svg>
