<svg width="30" height="29" viewBox="0 0 30 29" fill="none" xmlns="http://www.w3.org/2000/svg">
<path id="&#237;&#153;&#136;" d="M14.3126 0.877364C14.5787 0.634265 14.9221 0.5 15.2778 0.5C15.6336 0.5 15.977 0.634265 16.243 0.877364L29.3254 12.8445C29.5988 13.1118 29.7606 13.4781 29.7765 13.8659C29.7925 14.2537 29.6613 14.6327 29.4107 14.9228C29.1601 15.2129 28.8097 15.3915 28.4336 15.4207C28.0575 15.4499 27.6851 15.3275 27.395 15.0793L26.9066 14.6351V25.929C26.9066 26.7225 26.6003 27.4835 26.0551 28.0445C25.5099 28.6056 24.7704 28.9208 23.9994 28.9208H6.55626C5.78523 28.9208 5.04577 28.6056 4.50057 28.0445C3.95536 27.4835 3.64907 26.7225 3.64907 25.929V14.6351L3.16066 15.0793C2.87061 15.3275 2.49819 15.4499 2.12207 15.4207C1.74595 15.3915 1.39559 15.2129 1.145 14.9228C0.894407 14.6327 0.763212 14.2537 0.779128 13.8659C0.795043 13.4781 0.956823 13.1118 1.23029 12.8445L14.3126 0.877364ZM6.55626 11.9724V25.929H10.917V18.4496C10.917 18.0528 11.0702 17.6723 11.3428 17.3918C11.6154 17.1113 11.9851 16.9537 12.3706 16.9537H18.185C18.5705 16.9537 18.9403 17.1113 19.2129 17.3918C19.4855 17.6723 19.6386 18.0528 19.6386 18.4496V25.929H23.9994V11.9739L15.2778 3.99629L6.55626 11.9724ZM16.7314 25.929V19.9455H13.8242V25.929H16.7314Z" fill="#AFAFAF"/>
</svg>
