<svg width="87" height="87" viewBox="0 0 87 87" fill="none" xmlns="http://www.w3.org/2000/svg">
<g id="leftButton" clip-path="url(#clip0_504_257)">
<g id="Group">
<path id="Vector" fill-rule="evenodd" clip-rule="evenodd" d="M28.7825 47.3425C27.7642 46.323 27.1923 44.9409 27.1923 43.5C27.1923 42.0591 27.7642 40.677 28.7825 39.6575L49.2855 19.1473C50.3055 18.1277 51.6888 17.5551 53.1311 17.5554C54.5733 17.5558 55.9563 18.129 56.9759 19.1491C57.9955 20.1691 58.5681 21.5524 58.5677 22.9947C58.5674 24.4369 57.9942 25.8199 56.9741 26.8395L40.3136 43.5L56.9741 60.1605C57.9651 61.1856 58.5138 62.5588 58.5021 63.9845C58.4904 65.4102 57.9192 66.7743 56.9115 67.783C55.9038 68.7916 54.5403 69.3641 53.1146 69.3771C51.6889 69.3902 50.3151 68.8428 49.2891 67.8528L28.7788 47.3461L28.7825 47.3425Z" fill="#24272D"/>
</g>
</g>
<defs>
<clipPath id="clip0_504_257">
<rect width="87" height="87" fill="white" transform="matrix(0 1 -1 0 87 0)"/>
</clipPath>
</defs>
</svg>
