<svg width="25" height="33" viewBox="0 0 25 33" fill="none" xmlns="http://www.w3.org/2000/svg">
<path id="Vector" d="M15.1247 4.51799C16.3226 3.80029 17.5309 3.41587 18.6247 4.51799C19.7184 5.62012 18.6247 7.16309 17.7497 8.04479M7.24989 8.04479C5.93742 6.72224 5.82761 5.0695 6.8124 4.07714C7.68738 3.19544 8.41712 3.00676 9.87484 3.63629M10.3123 6.72224C10.3123 6.72224 9.79565 5.3631 9.96802 4.50345C10.2423 3.13108 11.2827 1.969 12.4832 1.969C12.8136 1.96839 13.1408 2.03351 13.4462 2.16064C13.7516 2.28777 14.029 2.4744 14.2627 2.70983C14.4963 2.94525 14.6815 3.22484 14.8077 3.53256C14.9338 3.84028 14.9985 4.17006 14.9979 4.503C14.9979 5.90667 14.6859 6.72357 14.6859 6.72357M5.93742 25.2379C5.93742 25.2379 7.68738 22.5928 10.3123 23.4745M17.7497 25.6788C17.7497 25.6788 16.4372 23.4745 14.6872 23.4745M2 16.8618C2.00044 21.3448 4.84194 25.3834 8.86554 26.7867C8.86554 26.7867 11.6248 30.969 12.4998 30.969C13.3748 30.969 16.1178 26.8012 16.1178 26.8012C17.5224 26.3086 18.7983 25.5026 19.8505 24.4435C21.7466 22.5329 22.9641 19.6722 23 16.8614C23 14.054 21.8227 11.613 19.8689 9.6442C17.8971 7.65729 15.5627 6.7218 12.5785 6.66493C9.59397 6.60762 7.12477 7.56515 5.15081 9.55426C3.17904 11.5412 2 14.0545 2 16.8618Z" stroke="#AFAFAF" stroke-width="3" stroke-linecap="round" stroke-linejoin="round"/>
</svg>
