<svg width="87" height="87" viewBox="0 0 87 87" fill="none" xmlns="http://www.w3.org/2000/svg">
<g id="rightButton">
<path id="Vector" fill-rule="evenodd" clip-rule="evenodd" d="M58.2175 39.6575C59.2358 40.677 59.8077 42.0591 59.8077 43.5C59.8077 44.9409 59.2358 46.323 58.2175 47.3425L37.7145 67.8527C36.6945 68.8723 35.3112 69.4449 33.8689 69.4446C32.4267 69.4442 31.0437 68.871 30.0241 67.8509C29.0045 66.8309 28.4319 65.4476 28.4323 64.0053C28.4326 62.5631 29.0058 61.1801 30.0259 60.1605L46.6864 43.5L30.0259 26.8395C29.0349 25.8144 28.4862 24.4412 28.4979 23.0155C28.5096 21.5898 29.0808 20.2257 30.0885 19.217C31.0962 18.2084 32.4597 17.6359 33.8854 17.6229C35.3111 17.6098 36.6849 18.1572 37.7109 19.1472L58.2212 39.6539L58.2175 39.6575Z" fill="#ffffff"/>
</g>
</svg>
